<svg width="72" height="73" viewBox="0 0 72 73" fill="none" xmlns="http://www.w3.org/2000/svg">
<path d="M28.2727 43.5389C26.5568 43.5389 24.9215 44.2183 23.7123 45.4275C22.5031 46.6367 21.8237 48.2835 21.8237 49.9879C21.8237 51.6923 22.5031 53.3391 23.7123 54.5483C24.9215 55.7575 26.5568 56.4369 28.2727 56.4369C29.9886 56.4369 31.6239 55.7575 32.8331 54.5483C34.0423 53.3391 34.7217 51.7038 34.7217 49.9879C34.7217 48.272 34.0423 46.6367 32.8331 45.4275C31.6239 44.2183 29.9771 43.5389 28.2727 43.5389ZM28.2727 53.8573C27.2478 53.8573 26.2574 53.4542 25.5319 52.7287C24.8063 52.0032 24.4033 51.0243 24.4033 49.9879C24.4033 48.9514 24.8063 47.9726 25.5319 47.2471C26.2574 46.5215 27.2362 46.1185 28.2727 46.1185C29.2976 46.1185 30.288 46.5215 31.0135 47.2471C31.739 47.9726 32.1421 48.9514 32.1421 49.9879C32.1421 51.0243 31.739 52.0032 31.0135 52.7287C30.2765 53.4542 29.2976 53.8573 28.2727 53.8573ZM34.7217 18.3186C34.5835 16.879 33.9501 15.5201 32.9137 14.4952C31.693 13.2399 30.0116 12.549 28.2727 12.5835C26.5568 12.5835 24.9215 13.263 23.7123 14.4722C22.5031 15.6814 21.8237 17.3282 21.8237 19.0326V36.2607C21.8006 37.7693 21.3976 39.2549 20.6605 40.5677C20.2805 41.3047 19.8199 41.9957 19.2901 42.6291C16.9408 45.5196 16.0886 49.3545 16.9984 52.959C17.5166 54.9859 18.5646 56.8285 20.0617 58.291C21.5473 59.7536 23.4129 60.79 25.4397 61.2622C26.3725 61.481 27.3169 61.5961 28.2727 61.5961C31.025 61.6077 33.6968 60.6403 35.8042 58.8553C37.9117 57.0703 39.3051 54.6059 39.7427 51.8881C40.1804 49.1702 39.6391 46.3833 38.2111 44.0225C41.378 42.1109 43.6697 39.0361 44.6026 35.4545C45.5238 31.873 45.0171 28.0727 43.163 24.8597C41.3089 21.6697 38.2802 19.3089 34.7217 18.3186ZM33.9156 57.0127C31.7275 58.7171 28.8715 59.3159 26.1768 58.6595C24.6106 58.268 23.171 57.4734 22.0194 56.3333C20.8678 55.1932 20.0502 53.7767 19.6471 52.2105C18.9446 49.4006 19.601 46.4179 21.4321 44.1607C22.077 43.3661 22.6298 42.5024 23.0789 41.5811C23.9311 39.9458 24.3918 38.1148 24.3918 36.2722V33.2319H28.2727C28.9867 33.2319 29.5625 32.6561 29.5625 31.9421C29.5625 31.2281 28.9867 30.6523 28.2727 30.6523H24.4033V25.4931H28.2727C28.9867 25.4931 29.5625 24.9173 29.5625 24.2033C29.5625 23.4893 28.9867 22.9135 28.2727 22.9135H24.4033V19.0326C24.4033 18.0076 24.8063 17.0172 25.5319 16.2917C26.2574 15.5662 27.2362 15.1631 28.2727 15.1631C29.2976 15.1747 30.2765 15.5777 31.002 16.3032C31.7275 17.0287 32.1306 18.0076 32.1421 19.0326V36.5486C32.1997 39.3355 33.2477 42.0072 35.1133 44.0801L35.3436 44.368C36.8292 46.2452 37.5086 48.6405 37.2322 51.0243C36.9558 53.4082 35.7351 55.5732 33.858 57.0588L33.9156 57.0127ZM36.7831 41.869L36.5528 41.5581L36.2418 41.0974C36.0921 40.8441 35.9309 40.5792 35.8042 40.3028L35.5163 39.7616C35.3781 39.4391 35.2515 39.0936 35.1593 38.7597C35.1593 38.5754 35.1593 38.4027 34.9751 38.2184C34.8369 37.6541 34.7678 37.0668 34.7678 36.491V21.0018C37.5662 21.9922 39.8809 24.0075 41.2398 26.6447C42.5987 29.2819 42.8866 32.3452 42.0575 35.2012C41.2283 38.0572 39.3397 40.4756 36.7716 41.9727L36.7831 41.869ZM55.3586 31.9306C55.3586 32.2761 55.2204 32.5985 54.9786 32.8404C54.7367 33.0822 54.4143 33.2204 54.0688 33.2204H48.9096C48.1956 33.2204 47.6198 32.6446 47.6198 31.9306C47.6198 31.2166 48.1956 30.6408 48.9096 30.6408H54.0688C54.4143 30.6408 54.7367 30.779 54.9786 31.0208C55.2204 31.2627 55.3586 31.5966 55.3586 31.9306ZM45.3741 23.5469C45.0171 22.9365 45.2244 22.1534 45.8348 21.7964L50.303 19.2168C50.9249 18.8598 51.7195 19.0786 52.065 19.689C52.422 20.3108 52.2032 21.1055 51.5928 21.4509L47.1246 24.0306C46.5142 24.3876 45.7311 24.1803 45.3741 23.5699V23.5469ZM38.7639 15.6583L41.3435 11.1901C41.7005 10.5682 42.4951 10.3609 43.1055 10.7179C43.7273 11.0749 43.9346 11.8695 43.5776 12.4799L40.998 16.9481C40.641 17.57 39.8464 17.7773 39.236 17.4203C38.6257 17.0633 38.4069 16.2802 38.7639 15.6583ZM52.0765 44.1838C51.8462 44.5753 51.4201 44.8287 50.971 44.8287C50.7406 44.8287 50.5218 44.7596 50.3261 44.6444L45.8578 42.0648C45.2359 41.7078 45.0286 40.9132 45.3856 40.3028C45.7426 39.681 46.5373 39.4737 47.1476 39.8307L51.6159 42.4103C51.9153 42.583 52.1341 42.8709 52.2262 43.2049C52.3068 43.5389 52.2608 43.8959 52.0765 44.1838Z" fill="#9D62DD"/>
</svg>
