<svg width="71" height="72" viewBox="0 0 71 72" fill="none" xmlns="http://www.w3.org/2000/svg">
<path d="M35.4586 16.8755C31.4816 16.8755 27.6607 18.4553 24.8502 21.2658C22.0396 24.0856 20.4598 27.8973 20.4598 31.8743C20.4598 35.8513 22.0396 39.6722 24.8502 42.4828C27.6607 45.2933 31.4816 46.8731 35.4586 46.8731C39.4357 46.8731 43.2566 45.2933 46.0671 42.4828C48.8777 39.6722 50.4575 35.8513 50.4575 31.8743C50.4575 27.8973 48.8777 24.0764 46.0671 21.2658C43.2566 18.4553 39.4357 16.8755 35.4586 16.8755ZM35.4586 44.7331C32.0511 44.7331 28.7813 43.3737 26.3657 40.9673C23.9501 38.5517 22.5999 35.2819 22.5999 31.8743C22.5999 28.4667 23.9592 25.1969 26.3657 22.7813C28.7813 20.3657 32.0511 19.0156 35.4586 19.0156C38.8662 19.0156 42.136 20.3749 44.5516 22.7813C46.9672 25.1969 48.3174 28.4667 48.3174 31.8743C48.3174 35.2819 46.958 38.5517 44.5516 40.9673C42.136 43.3829 38.8662 44.7331 35.4586 44.7331Z" fill="#9D62DD"/>
<path d="M55.5734 28.9537C55.2887 28.6965 55.0958 28.3567 55.0223 27.9801C54.9488 27.6035 54.9948 27.2178 55.1693 26.8688C55.6469 25.8676 55.6744 24.7195 55.2519 23.6908C54.8294 22.6621 53.9844 21.8722 52.9466 21.5048C52.5883 21.3854 52.2669 21.1466 52.0556 20.8251C51.8444 20.5037 51.7433 20.1271 51.7617 19.7413C51.826 18.6024 51.3851 17.4819 50.5677 16.692C49.7411 15.9021 48.6205 15.4979 47.4816 15.6082C47.1142 15.6082 46.7652 15.4979 46.4621 15.2867C46.1682 15.0754 45.9477 14.7723 45.8283 14.4325C45.4609 13.3854 44.671 12.5496 43.6423 12.1271C42.6228 11.7046 41.4655 11.7322 40.4644 12.2098C38.4529 13.1374 38.3702 10.4463 35.4587 10.4463C34.3381 10.4555 33.2819 10.9331 32.5287 11.7689C32.2715 12.0444 31.9317 12.2373 31.5551 12.3108C31.1785 12.3843 30.7928 12.3384 30.4529 12.1822C29.4518 11.7046 28.2945 11.6679 27.275 12.0996C26.2555 12.5221 25.4564 13.3671 25.0982 14.4141C24.9696 14.7723 24.7308 15.0846 24.4093 15.3051C24.0878 15.5163 23.7113 15.6173 23.3255 15.599C22.1866 15.5347 21.066 15.9756 20.2761 16.793C19.4862 17.6196 19.0821 18.7402 19.1923 19.8791C19.1923 20.2465 19.0821 20.5955 18.8709 20.8986C18.6596 21.1925 18.3565 21.413 18.0167 21.5324C16.9788 21.8998 16.1338 22.6988 15.7113 23.7184C15.2888 24.7379 15.3163 25.8952 15.7848 26.8963C15.9685 27.2453 16.0236 27.6495 15.9501 28.0444C15.8766 28.4302 15.6745 28.7884 15.3714 29.0456C14.5356 29.762 14.058 30.8182 14.058 31.9388C14.058 33.0593 14.5356 34.1156 15.3714 34.8596C15.6562 35.1167 15.8491 35.4566 15.9225 35.8331C15.996 36.2097 15.9501 36.5955 15.7848 36.9445C15.3071 37.9457 15.2704 39.1029 15.7021 40.1225C16.1246 41.142 16.9696 41.9411 18.0167 42.2993C18.3749 42.4278 18.6872 42.6667 18.9076 42.9881C19.1189 43.3096 19.2199 43.6862 19.2015 44.0719C19.1464 44.9537 19.4036 45.8354 19.9179 46.5518C20.4323 47.2774 21.1763 47.801 22.0304 48.0306C16.988 56.7837 16.9696 56.398 17.4656 57.1419C17.9616 57.8859 18.2922 57.6379 23.004 57.0685C24.8502 61.4221 24.8134 61.8905 25.6952 61.8905C26.5769 61.8905 26.3932 61.8905 32.2348 51.7413C32.3542 51.8147 32.4644 51.9066 32.5654 52.0076C33.3094 52.8434 34.3657 53.321 35.4862 53.321C36.6068 53.321 37.663 52.8434 38.407 52.0076C38.508 51.9066 38.609 51.8239 38.7285 51.7504C44.717 62.1293 44.3679 61.964 45.268 61.8997C46.1682 61.8354 46.113 61.4404 47.9776 57.0593C52.6618 57.6287 53.0384 57.8767 53.516 57.1328C54.0028 56.3888 53.7548 56.352 48.9512 48.0306C49.8237 47.7826 50.5769 47.2407 51.0912 46.4967C51.6056 45.7528 51.8536 44.8526 51.7801 43.9525C51.7801 43.5851 51.8903 43.2361 52.1016 42.933C52.3128 42.6391 52.6159 42.4187 52.9557 42.2993C53.9936 41.9319 54.8386 41.1328 55.2611 40.1133C55.6836 39.0938 55.6561 37.9365 55.1877 36.9353C55.0223 36.5863 54.9764 36.2005 55.0499 35.8331C55.1234 35.4566 55.3162 35.1167 55.5918 34.8596C56.446 34.1156 56.942 33.041 56.942 31.9112C56.942 30.7815 56.4276 29.6977 55.5734 28.9537ZM25.8789 58.4186C23.996 54.0191 24.9971 54.6345 20.3129 55.2039C24.6665 47.6999 24.1889 48.3796 24.3175 48.4531C24.6573 48.6643 24.9145 48.9766 25.0431 49.3532C25.3645 50.2717 26.0075 51.034 26.8617 51.5025C27.7158 51.9709 28.7078 52.0995 29.6538 51.8699L25.8789 58.4186ZM45.0384 58.4186L41.2543 51.8699C42.2003 52.0995 43.1923 51.9617 44.0373 51.4933C44.8915 51.0248 45.5344 50.2625 45.8467 49.344C46.0028 48.9399 46.2967 48.6092 46.6733 48.3888L50.5952 55.1948C45.8742 54.6253 46.8938 54.065 45.0384 58.4186ZM54.159 33.1971C53.5252 33.7666 53.0935 34.5197 52.9282 35.3555C52.7629 36.1914 52.8731 37.0547 53.2405 37.8263C53.4609 38.2763 53.4793 38.7998 53.2864 39.2683C53.0935 39.7367 52.7078 40.0857 52.2393 40.251C51.4219 40.545 50.7238 41.0869 50.2554 41.8217C49.787 42.5473 49.5665 43.4106 49.6308 44.274C49.6308 44.77 49.4196 45.2476 49.0522 45.5782C48.6848 45.9181 48.198 46.0834 47.702 46.0375C46.8662 46.0007 46.0396 46.2396 45.3415 46.708C44.6435 47.1764 44.1199 47.8561 43.8444 48.646C43.6791 49.1144 43.3209 49.491 42.8524 49.6839C42.3932 49.8767 41.8697 49.8676 41.4196 49.6471C40.6573 49.2797 39.7939 49.1787 38.9581 49.344C38.1223 49.5093 37.3691 49.9319 36.7996 50.5656C36.4506 50.9238 35.973 51.1351 35.477 51.1351C34.981 51.1351 34.5034 50.933 34.1544 50.5656C33.5849 49.9319 32.8318 49.5002 31.996 49.3348C31.1602 49.1695 30.2968 49.2797 29.5253 49.6471C29.0752 49.8676 28.5517 49.8767 28.0832 49.6839C27.6148 49.491 27.2566 49.1144 27.0913 48.6368C26.8065 47.8193 26.2555 47.1213 25.5299 46.6437C24.8043 46.1661 23.9409 45.9548 23.0775 46.0191C22.5815 46.0191 22.1039 45.8079 21.7733 45.4405C21.4334 45.0731 21.2681 44.5863 21.314 44.0903C21.3508 43.2545 21.112 42.4278 20.6435 41.7298C20.1751 41.0318 19.4862 40.5082 18.6964 40.2327C18.2187 40.0765 17.833 39.7183 17.6401 39.2499C17.4472 38.7815 17.4656 38.2579 17.686 37.8079C18.0534 37.0455 18.1636 36.1822 17.9983 35.3463C17.833 34.5105 17.4013 33.7574 16.7767 33.1879C16.4001 32.8481 16.1797 32.3705 16.1797 31.8653C16.1797 31.3601 16.4001 30.8733 16.7767 30.5427C17.4105 29.9732 17.8422 29.2201 18.0075 28.3843C18.1728 27.5484 18.0626 26.6851 17.6952 25.9135C17.4748 25.4635 17.4564 24.9399 17.6493 24.4715C17.8422 24.0031 18.2279 23.6449 18.7055 23.4887C19.523 23.1948 20.221 22.6529 20.6895 21.9181C21.1579 21.1925 21.3783 20.3292 21.314 19.4658C21.314 18.9698 21.5161 18.4922 21.8835 18.1524C22.2509 17.8125 22.7469 17.6472 23.2428 17.6931C24.0787 17.7299 24.9053 17.491 25.6033 17.0226C26.3014 16.5542 26.8249 15.8929 27.1005 15.0938C27.2658 14.6254 27.624 14.2488 28.0924 14.0559C28.5517 13.863 29.0752 13.8722 29.5253 14.0927C30.2876 14.4601 31.151 14.5703 31.9868 14.4049C32.8226 14.2396 33.5758 13.8079 34.1452 13.1834C34.4942 12.8252 34.9719 12.6139 35.4678 12.6139C35.9638 12.6139 36.4414 12.816 36.7905 13.1834C37.3599 13.8171 38.1223 14.2488 38.9489 14.4141C39.7847 14.5795 40.6481 14.4692 41.4196 14.1018C41.8697 13.8814 42.3932 13.8722 42.8524 14.0651C43.3117 14.258 43.6699 14.6346 43.8352 15.1122C44.1291 15.9296 44.671 16.6277 45.4058 17.0961C46.1314 17.5645 46.9948 17.785 47.8582 17.7207C48.3541 17.7207 48.8318 17.9319 49.1624 18.2993C49.5023 18.6667 49.6676 19.1535 49.6217 19.6495C49.5849 20.4853 49.8237 21.3119 50.2921 22.01C50.7606 22.708 51.4494 23.2316 52.2393 23.5071C52.7169 23.6633 53.1027 24.0215 53.2956 24.4899C53.4885 24.9583 53.4701 25.4818 53.2497 25.9319C52.8823 26.6942 52.772 27.5576 52.9374 28.3934C53.1027 29.2293 53.5344 29.9824 54.159 30.5519C54.5355 30.8917 54.756 31.3693 54.756 31.8745C54.756 32.3797 54.5355 32.8573 54.159 33.1971Z" fill="#9D62DD"/>
<path d="M38.8203 27.6954C36.2669 22.5428 36.3496 22.2305 35.4586 22.2305C34.5677 22.2305 34.6412 22.5336 32.097 27.6954C26.4208 28.5221 26.1452 28.3476 25.8697 29.1926C25.5941 30.0376 25.8697 30.0743 30.0304 34.0789C29.0568 39.7367 28.818 39.948 29.5344 40.5083C30.2508 41.0685 30.3703 40.7471 35.4586 38.0651C40.6389 40.7838 40.3909 40.7103 40.7491 40.7103C41.0706 40.7195 41.3737 40.5817 41.5757 40.3338C41.787 40.0949 41.8697 39.7735 41.8145 39.452L40.8961 34.0973L44.7904 30.3131C45.0843 30.0284 45.1946 29.5967 45.066 29.2109C44.9374 28.8252 44.5975 28.5404 44.1934 28.4853L38.8203 27.6954ZM38.9948 32.9492C38.4621 33.4727 38.6641 33.7115 39.3346 37.6518C35.5964 35.6862 35.8077 35.7597 35.4586 35.7597C35.1096 35.7597 35.3209 35.6954 31.5826 37.6518C32.2715 33.6839 32.4644 33.4635 31.9225 32.9492L29.1946 30.2856L32.9696 29.7437C33.7227 29.6334 33.6952 29.3212 35.4678 25.7391C37.2589 29.3579 37.2221 29.6426 37.9661 29.7437L41.7411 30.2856L38.9948 32.9492Z" fill="#9D62DD"/>
</svg>
