<svg width="72" height="73" viewBox="0 0 72 73" fill="none" xmlns="http://www.w3.org/2000/svg">
<path d="M24.0752 13.8403C18.3322 13.8403 13.6615 18.511 13.6615 24.254C13.6615 29.9971 18.3322 34.6677 24.0752 34.6677C29.8182 34.6677 34.4889 29.9971 34.4889 24.254C34.48 18.511 29.8094 13.8403 24.0752 13.8403ZM24.0752 32.5229C19.5109 32.5229 15.7974 28.8095 15.7974 24.2452C15.7974 19.6809 19.5109 15.9762 24.0752 15.9762C28.6395 15.9762 32.353 19.6897 32.353 24.254C32.3441 28.8183 28.6395 32.5229 24.0752 32.5229Z" fill="#9D62DD"/>
<path d="M47.9248 34.6589C50.7077 34.6589 53.3222 33.5776 55.2897 31.6101C57.2572 29.6426 58.3385 27.0281 58.3385 24.2452C58.3385 21.4623 57.2572 18.8478 55.2897 16.8802C53.3133 14.9216 50.6988 13.8403 47.9248 13.8403C45.1508 13.8403 42.5274 14.9216 40.5599 16.8891C36.5008 20.9482 36.5008 27.551 40.5599 31.6101C42.5274 33.5776 45.1419 34.6589 47.9248 34.6589ZM39.8243 25.9291L49.6087 16.1446C50.2025 16.2687 50.7697 16.4548 51.3192 16.703L40.3738 27.6485C40.1256 27.0901 39.9395 26.514 39.8243 25.9291ZM53.1804 17.864C53.3842 18.0324 53.5881 18.2097 53.7742 18.4046C53.9603 18.5908 54.1464 18.7946 54.3148 18.9984L42.6603 30.6441C42.4565 30.4757 42.2527 30.2984 42.0665 30.1034C41.8716 29.9084 41.6943 29.7135 41.5259 29.5096L53.1804 17.864ZM56.0253 22.5701L46.232 32.3546C45.6382 32.2305 45.071 32.0444 44.5215 31.7962L55.467 20.8596C55.7151 21.4002 55.9012 21.9763 56.0253 22.5701ZM53.7742 30.1034C52.5157 31.3619 50.9115 32.1684 49.1833 32.4343L56.1051 25.5125C55.8392 27.2408 55.0327 28.8449 53.7742 30.1034ZM42.0665 18.3958C43.325 17.1373 44.9292 16.3308 46.6574 16.0649L39.7445 22.9778C40.0015 21.3116 40.7814 19.6897 42.0665 18.3958Z" fill="#9D62DD"/>
<path d="M24.0752 37.6899C18.3322 37.6899 13.6615 42.3606 13.6615 48.1036C13.6615 53.8378 18.3322 58.5085 24.0752 58.5085C29.8182 58.5085 34.4889 53.8378 34.4889 48.0948C34.48 42.3606 29.8094 37.6899 24.0752 37.6899ZM24.0752 56.3725C19.5109 56.3725 15.7974 52.6591 15.7974 48.0948C15.7974 43.5305 19.5109 39.817 24.0752 39.817C28.6395 39.817 32.353 43.5305 32.353 48.0948C32.3441 52.6591 28.6395 56.3725 24.0752 56.3725Z" fill="#9D62DD"/>
<path d="M47.9248 37.6899C42.1817 37.6899 37.5111 42.3606 37.5111 48.1036C37.5111 53.8467 42.1817 58.5173 47.9248 58.5173C53.6678 58.5173 58.3385 53.8467 58.3385 48.1036C58.3296 42.3606 53.659 37.6899 47.9248 37.6899ZM47.9248 56.3726C43.3605 56.3726 39.647 52.6591 39.647 48.0948C39.647 43.5305 43.3605 39.817 47.9248 39.817C52.4891 39.817 56.2026 43.5305 56.2026 48.0948C56.2026 52.6591 52.4802 56.3726 47.9248 56.3726Z" fill="#9D62DD"/>
</svg>
