<svg width="72" height="72" viewBox="0 0 72 72" fill="none" xmlns="http://www.w3.org/2000/svg">
<path d="M20.3082 30.1944C19.8163 29.7133 19.0358 29.724 18.5546 30.2051C18.0735 30.6863 18.0735 31.4668 18.5439 31.9587L21.4095 34.8135H11.9468C11.2518 34.8135 10.6958 35.3802 10.6958 36.0645C10.6958 36.7488 11.2518 37.3155 11.9468 37.3155H21.4095L18.5439 40.181C18.3087 40.4163 18.1697 40.737 18.1697 41.0685C18.1697 41.3999 18.298 41.7207 18.5332 41.9559C18.7685 42.1912 19.0892 42.3195 19.4207 42.3195C19.7522 42.3195 20.0729 42.1805 20.3082 41.9452L25.3015 36.952C25.7933 36.4601 25.7933 35.6796 25.3015 35.1877L20.3082 30.1944Z" fill="#9D62DD"/>
<path d="M31.8986 13.6108C31.5671 13.6108 31.2464 13.7391 31.0112 13.9744C30.7759 14.2096 30.6476 14.5304 30.6476 14.8618V57.2781C30.6476 57.9624 31.2036 58.5291 31.8986 58.5291C32.5936 58.5291 33.1496 57.9731 33.1496 57.2781V14.8618C33.1496 14.5304 33.0213 14.2096 32.7861 13.9744C32.5508 13.7391 32.2301 13.6108 31.8986 13.6108Z" fill="#9D62DD"/>
<path d="M59.3457 34.8136H49.883L52.7486 31.948C52.9838 31.7128 53.1228 31.392 53.1228 31.0606C53.1228 30.7291 52.9945 30.4083 52.7593 30.1731C52.524 29.9379 52.2033 29.8096 51.8718 29.8096C51.5403 29.8096 51.2196 29.9486 50.9843 30.1838L45.991 35.1771C45.4992 35.6689 45.4992 36.4495 45.991 36.9413L50.9843 41.9346C51.2196 42.1698 51.5403 42.3088 51.8718 42.3088C52.2033 42.3088 52.524 42.1805 52.7593 41.9453C52.9945 41.7101 53.1228 41.3893 53.1228 41.0579C53.1228 40.7264 52.9838 40.4056 52.7486 40.1704L49.883 37.3049H59.3457C60.03 37.3049 60.5967 36.7489 60.5967 36.0539C60.5967 35.3589 60.03 34.8136 59.3457 34.8136Z" fill="#9D62DD"/>
<path d="M39.3832 13.6108C39.0517 13.6108 38.7309 13.7391 38.4957 13.9744C38.2605 14.2096 38.1322 14.5304 38.1322 14.8618V57.2781C38.1322 57.9624 38.6882 58.5291 39.3832 58.5291C40.0782 58.5291 40.6342 57.9731 40.6342 57.2781V14.8618C40.6342 14.5304 40.5059 14.2096 40.2706 13.9744C40.0354 13.7391 39.7146 13.6108 39.3832 13.6108Z" fill="#9D62DD"/>
</svg>
