<svg width="71" height="73" viewBox="0 0 71 73" fill="none" xmlns="http://www.w3.org/2000/svg">
<path d="M14.8754 12.9399H45.3376C46.5489 12.9399 47.4983 13.8944 47.4983 15.2638V18.4094H50.7311C51.9424 18.4094 53.0227 19.505 53.0227 20.7333V24.0117H56.1246C57.3359 24.0117 58.4162 24.9661 58.4162 26.2028V57.094C58.4162 58.3224 57.3359 59.4179 56.1246 59.4179H25.6624C24.4511 59.4179 23.5017 58.3224 23.5017 57.094V53.9485H20.2689C19.0576 53.9485 17.9773 52.8529 17.9773 51.6246V48.3462H14.8754C13.525 48.3462 12.5838 47.3918 12.5838 46.1551V15.2638C12.5838 13.8944 13.525 12.9399 14.8754 12.9399ZM20.2689 20.7333V51.6246H23.5017V26.2028C23.5017 24.9744 24.4429 24.0117 25.6624 24.0117H50.7393V20.7333H20.2689ZM56.1246 26.3356H25.7933V57.094H56.1246V26.3356ZM45.2066 15.2638H14.8754V46.0223H17.9773V20.7333C17.9773 19.505 19.0576 18.4094 20.2689 18.4094H45.2066V15.2638Z" fill="#9D62DD"/>
</svg>
